<svg width="375" height="375" viewBox="0 0 375 375" fill="none" xmlns="http://www.w3.org/2000/svg">
<path d="M187.494 0C83.947 0 0 83.8946 0 187.377C0 290.859 83.947 374.754 187.494 374.754C291.041 374.754 374.988 290.859 374.988 187.377C374.988 83.8946 291.041 0 187.494 0ZM187.494 284.55C133.786 284.55 90.2607 241.04 90.2607 187.377C90.2607 133.714 133.798 90.2044 187.494 90.2044C241.19 90.2044 284.727 133.714 284.727 187.377C284.727 241.04 241.19 284.55 187.494 284.55Z" fill="#DC267F"/>
<path d="M255.902 12.9189L222.968 96.8974C249.804 107.422 270.818 129.512 279.863 157.038L365.607 128.877C348.164 75.789 307.646 33.2012 255.89 12.9189H255.902Z" fill="#785EF0"/>
<path d="M374.988 187.377C374.988 166.939 371.669 147.292 365.619 128.889L279.875 157.05C283.014 166.592 284.739 176.793 284.739 187.389C284.739 234.431 251.29 273.654 206.866 282.634L224.849 371.043C310.509 353.742 375 278.096 375 187.389L374.988 187.377Z" fill="#FE6100"/>
<path d="M206.866 282.622C200.613 283.891 194.131 284.55 187.494 284.55C183.864 284.55 180.294 284.334 176.772 283.951L166.828 373.593C173.621 374.335 180.509 374.754 187.494 374.754C200.289 374.754 212.773 373.461 224.837 371.031L206.854 282.622H206.866Z" fill="#FFB000"/>
</svg>
