<svg width="18" height="18" viewBox="0 0 18 18" fill="none" xmlns="http://www.w3.org/2000/svg">
<mask id="mask0_0_1898" style="mask-type:alpha" maskUnits="userSpaceOnUse" x="0" y="0" width="18" height="18">
<mask id="mask1_0_1898" style="mask-type:alpha" maskUnits="userSpaceOnUse" x="0" y="0" width="18" height="18">
<rect width="18" height="18" fill="#D9D9D9"/>
</mask>
<g mask="url(#mask1_0_1898)">
<path d="M5.27693 12.75H6.77693V7.49999H5.27693V12.75ZM8.25002 12.75H9.75002V5.24999H8.25002V12.75ZM11.2231 12.75H12.7231V9.74999H11.2231V12.75ZM3.80383 15.9024C3.33155 15.9024 2.9291 15.7361 2.59648 15.4035C2.26387 15.0709 2.09756 14.6685 2.09756 14.1962V3.8038C2.09756 3.33151 2.26387 2.92907 2.59648 2.59645C2.9291 2.26384 3.33155 2.09753 3.80383 2.09753H14.1962C14.6685 2.09753 15.0709 2.26384 15.4036 2.59645C15.7362 2.92907 15.9025 3.33151 15.9025 3.8038V14.1962C15.9025 14.6685 15.7362 15.0709 15.4036 15.4035C15.0709 15.7361 14.6685 15.9024 14.1962 15.9024H3.80383ZM3.80383 14.1962H14.1962V3.8038H3.80383V14.1962Z" fill="#1C1B1F"/>
</g>
</mask>
<g mask="url(#mask0_0_1898)">
<rect width="18" height="18" fill="#6C567B"/>
</g>
</svg>
