<svg width="18" height="18" viewBox="0 0 18 18" fill="none" xmlns="http://www.w3.org/2000/svg">
<mask id="mask0_0_532" style="mask-type:alpha" maskUnits="userSpaceOnUse" x="0" y="0" width="18" height="18">
<mask id="mask1_0_532" style="mask-type:alpha" maskUnits="userSpaceOnUse" x="0" y="0" width="18" height="18">
<rect width="18" height="18" fill="#D9D9D9"/>
</mask>
<g mask="url(#mask1_0_532)">
<path d="M8.99998 5.3038C8.55759 5.3038 8.1798 5.14721 7.86661 4.83402C7.55344 4.52085 7.39685 4.14306 7.39685 3.70068C7.39685 3.25828 7.55344 2.88049 7.86661 2.56732C8.1798 2.25413 8.55759 2.09753 8.99998 2.09753C9.44236 2.09753 9.82015 2.25413 10.1333 2.56732C10.4465 2.88049 10.6031 3.25828 10.6031 3.70068C10.6031 4.14306 10.4465 4.52085 10.1333 4.83402C9.82015 5.14721 9.44236 5.3038 8.99998 5.3038ZM7.77185 15.9024V6.8038H10.2281V15.9024H7.77185Z" fill="#1C1B1F"/>
</g>
</mask>
<g mask="url(#mask0_0_532)">
<rect width="18" height="18" fill="white"/>
</g>
</svg>
