<svg width="18" height="18" viewBox="0 0 18 18" fill="none" xmlns="http://www.w3.org/2000/svg">
<mask id="mask0_0_699" style="mask-type:alpha" maskUnits="userSpaceOnUse" x="0" y="0" width="18" height="18">
<mask id="mask1_0_699" style="mask-type:alpha" maskUnits="userSpaceOnUse" x="0" y="0" width="18" height="18">
<rect width="18" height="18" fill="#D9D9D9"/>
</mask>
<g mask="url(#mask1_0_699)">
<path d="M3.0538 14.1962H5.87892V8.3038H3.0538V14.1962ZM7.58519 14.1962H10.4148V3.8038H7.58519V14.1962ZM12.1211 14.1962H14.9462V9.8038H12.1211V14.1962ZM1.34753 14.1962V8.3038C1.34753 7.83151 1.51385 7.42907 1.84647 7.09645C2.17907 6.76384 2.58152 6.59753 3.0538 6.59753H5.87892V3.8038C5.87892 3.33151 6.04523 2.92907 6.37784 2.59645C6.71045 2.26384 7.1129 2.09753 7.58519 2.09753H10.4148C10.8871 2.09753 11.2895 2.26384 11.6221 2.59645C11.9548 2.92907 12.1211 3.33151 12.1211 3.8038V8.09753H14.9462C15.4185 8.09753 15.8209 8.26384 16.1535 8.59645C16.4861 8.92907 16.6524 9.33151 16.6524 9.8038V14.1962C16.6524 14.6685 16.4861 15.0709 16.1535 15.4035C15.8209 15.7361 15.4185 15.9024 14.9462 15.9024H3.0538C2.58152 15.9024 2.17907 15.7361 1.84645 15.4035C1.51385 15.0709 1.34753 14.6685 1.34753 14.1962Z" fill="#2B2B2B"/>
</g>
</mask>
<g mask="url(#mask0_0_699)">
<rect width="18" height="18" fill="#6C567B"/>
</g>
</svg>
