<svg width="18" height="18" viewBox="0 0 18 18" fill="none" xmlns="http://www.w3.org/2000/svg">
<mask id="mask0_14_503" style="mask-type:alpha" maskUnits="userSpaceOnUse" x="0" y="0" width="18" height="18">
<mask id="mask1_14_503" style="mask-type:alpha" maskUnits="userSpaceOnUse" x="0" y="0" width="18" height="18">
<rect width="18" height="18" fill="#D9D9D9"/>
</mask>
<g mask="url(#mask1_14_503)">
<path d="M8.99999 12C9.93749 12 10.7344 11.6719 11.3906 11.0156C12.0469 10.3594 12.375 9.56252 12.375 8.62502C12.375 7.68752 12.0469 6.89064 11.3906 6.23439C10.7344 5.57814 9.93749 5.25002 8.99999 5.25002C8.06249 5.25002 7.26561 5.57814 6.60936 6.23439C5.95311 6.89064 5.62499 7.68752 5.62499 8.62502C5.62499 9.56252 5.95311 10.3594 6.60936 11.0156C7.26561 11.6719 8.06249 12 8.99999 12ZM9.00077 10.5559C8.46465 10.5559 8.00868 10.3682 7.63287 9.99292C7.25706 9.61764 7.06915 9.16193 7.06915 8.6258C7.06915 8.08968 7.25679 7.63371 7.63208 7.2579C8.00737 6.88209 8.46307 6.69418 8.9992 6.69418C9.53532 6.69418 9.99129 6.88182 10.3671 7.25711C10.7429 7.6324 10.9308 8.08811 10.9308 8.62423C10.9308 9.16036 10.7432 9.61632 10.3679 9.99214C9.99261 10.3679 9.5369 10.5559 9.00077 10.5559ZM8.99999 14.389C7.13911 14.389 5.44747 13.8647 3.92506 12.8161C2.40263 11.7674 1.29794 10.3704 0.610992 8.62502C1.29794 6.87964 2.40263 5.48263 3.92506 4.43398C5.44747 3.38534 7.13911 2.86102 8.99999 2.86102C10.8609 2.86102 12.5525 3.38534 14.0749 4.43398C15.5973 5.48263 16.702 6.87964 17.389 8.62502C16.702 10.3704 15.5973 11.7674 14.0749 12.8161C12.5525 13.8647 10.8609 14.389 8.99999 14.389ZM9.00038 12.75C10.4096 12.75 11.7034 12.3774 12.8816 11.6321C14.0599 10.8869 14.9615 9.88453 15.5865 8.62502C14.9615 7.3655 14.0598 6.36313 12.8812 5.61789C11.7027 4.87264 10.4088 4.50002 8.99959 4.50002C7.59034 4.50002 6.29659 4.87264 5.11832 5.61789C3.94006 6.36313 3.03843 7.3655 2.41343 8.62502C3.03843 9.88453 3.9402 10.8869 5.11874 11.6321C6.29726 12.3774 7.59114 12.75 9.00038 12.75Z" fill="#1C1B1F"/>
</g>
</mask>
<g mask="url(#mask0_14_503)">
<rect width="18" height="18" fill="#96A7B0"/>
</g>
</svg>
