<svg width="17" height="17" viewBox="0 0 17 17" fill="none" xmlns="http://www.w3.org/2000/svg">
<mask id="mask0_0_3533" style="mask-type:alpha" maskUnits="userSpaceOnUse" x="0" y="0" width="17" height="17">
<rect width="17" height="16.9895" fill="#D9D9D9"/>
</mask>
<g mask="url(#mask0_0_3533)">
<path d="M8.50003 15.0097C6.67504 15.0097 5.13229 14.7213 3.87179 14.1445C2.61128 13.5677 1.98103 12.8642 1.98103 12.0343V4.95533C1.98103 4.13714 2.61789 3.43669 3.89162 2.85396C5.16534 2.27122 6.70147 1.97985 8.50003 1.97985C10.2958 1.97985 11.8312 2.27122 13.1063 2.85396C14.3815 3.43669 15.019 4.13714 15.019 4.95533V12.0343C15.019 12.8642 14.3881 13.5677 13.1261 14.1445C11.8642 14.7213 10.3222 15.0097 8.50003 15.0097ZM8.50003 6.38458C9.5479 6.38458 10.6003 6.23486 11.6571 5.93541C12.714 5.63597 13.3116 5.31517 13.4499 4.97302C13.3116 4.63088 12.7155 4.30783 11.6617 4.0039C10.608 3.69997 9.55407 3.548 8.50003 3.548C7.43419 3.548 6.38619 3.69772 5.35603 3.99718C4.32587 4.29661 3.72391 4.6219 3.55015 4.97302C3.72108 5.32697 4.32092 5.65071 5.34967 5.94425C6.37842 6.23781 7.42854 6.38458 8.50003 6.38458ZM8.50003 9.8979C8.9874 9.8979 9.45988 9.87359 9.91746 9.82498C10.3751 9.77637 10.8127 9.70712 11.2304 9.61723C11.6481 9.52733 12.0443 9.41608 12.419 9.28348C12.7937 9.15088 13.1373 8.99917 13.4499 8.82836V6.89089C13.1373 7.05606 12.7951 7.20283 12.4232 7.3312C12.0513 7.45957 11.6572 7.5673 11.241 7.65437C10.8247 7.74144 10.3878 7.80787 9.93017 7.85366C9.47258 7.89943 8.99586 7.92232 8.50003 7.92232C8.00984 7.92232 7.53075 7.89943 7.06276 7.85366C6.59478 7.80787 6.15194 7.74073 5.73425 7.65224C5.31657 7.56376 4.92333 7.45533 4.55453 7.32697C4.18574 7.1986 3.85094 7.05324 3.55015 6.89089V8.82836C3.84811 8.99635 4.1815 9.14736 4.5503 9.28137C4.9191 9.41538 5.31374 9.52733 5.73425 9.61723C6.15476 9.70712 6.59901 9.77637 7.067 9.82498C7.53498 9.87359 8.01266 9.8979 8.50003 9.8979ZM8.50003 13.4416C9.03462 13.4416 9.57947 13.401 10.1346 13.3198C10.6897 13.2386 11.202 13.1309 11.6714 12.9966C12.1408 12.8624 12.537 12.7097 12.8599 12.5386C13.1829 12.3676 13.3796 12.1935 13.4499 12.0166V10.4092C13.1401 10.5772 12.7993 10.7275 12.4274 10.8601C12.0556 10.9927 11.6601 11.1032 11.241 11.1917C10.8219 11.2802 10.3835 11.348 9.92594 11.3952C9.46834 11.4424 8.99304 11.466 8.50003 11.466C8.00984 11.466 7.53075 11.4424 7.06276 11.3952C6.59478 11.348 6.15124 11.2788 5.73214 11.1875C5.31304 11.0962 4.9191 10.9849 4.5503 10.8537C4.1815 10.7225 3.84811 10.573 3.55015 10.405V12.0343C3.61765 12.2084 3.81065 12.3781 4.12914 12.5433C4.44763 12.7084 4.84158 12.8582 5.31098 12.9924C5.78038 13.1267 6.2956 13.2351 6.85662 13.3177C7.41763 13.4003 7.96544 13.4416 8.50003 13.4416Z" fill="#96A7B0"/>
</g>
</svg>
