<svg width="18" height="18" viewBox="0 0 18 18" fill="none" xmlns="http://www.w3.org/2000/svg">
<mask id="mask0_14_525" style="mask-type:alpha" maskUnits="userSpaceOnUse" x="0" y="0" width="18" height="18">
<mask id="mask1_14_525" style="mask-type:alpha" maskUnits="userSpaceOnUse" x="0" y="0" width="18" height="18">
<rect width="18" height="18" fill="#D9D9D9"/>
</mask>
<g mask="url(#mask1_14_525)">
<path d="M8.99999 12C9.93749 12 10.7344 11.6718 11.3906 11.0156C12.0469 10.3593 12.375 9.56246 12.375 8.62496C12.375 7.68746 12.0469 6.89058 11.3906 6.23433C10.7344 5.57808 9.93749 5.24996 8.99999 5.24996C8.06249 5.24996 7.26561 5.57808 6.60936 6.23433C5.95311 6.89058 5.62499 7.68746 5.62499 8.62496C5.62499 9.56246 5.95311 10.3593 6.60936 11.0156C7.26561 11.6718 8.06249 12 8.99999 12ZM9.00077 10.5558C8.46465 10.5558 8.00868 10.3681 7.63287 9.99286C7.25706 9.61757 7.06915 9.16187 7.06915 8.62574C7.06915 8.08962 7.25679 7.63365 7.63208 7.25784C8.00737 6.88202 8.46307 6.69412 8.9992 6.69412C9.53532 6.69412 9.99129 6.88176 10.3671 7.25705C10.7429 7.63234 10.9308 8.08804 10.9308 8.62417C10.9308 9.16029 10.7432 9.61626 10.3679 9.99207C9.99261 10.3679 9.5369 10.5558 9.00077 10.5558ZM8.99999 14.389C7.13911 14.389 5.44747 13.8646 3.92506 12.816C2.40263 11.7673 1.29794 10.3703 0.610992 8.62496C1.29794 6.87958 2.40263 5.48257 3.92506 4.43392C5.44747 3.38528 7.13911 2.86096 8.99999 2.86096C10.8609 2.86096 12.5525 3.38528 14.0749 4.43392C15.5973 5.48257 16.702 6.87958 17.389 8.62496C16.702 10.3703 15.5973 11.7673 14.0749 12.816C12.5525 13.8646 10.8609 14.389 8.99999 14.389ZM9.00038 12.75C10.4096 12.75 11.7034 12.3773 12.8816 11.6321C14.0599 10.8868 14.9615 9.88447 15.5865 8.62496C14.9615 7.36544 14.0598 6.36307 12.8812 5.61783C11.7027 4.87258 10.4088 4.49996 8.99959 4.49996C7.59034 4.49996 6.29659 4.87258 5.11832 5.61783C3.94006 6.36307 3.03843 7.36544 2.41343 8.62496C3.03843 9.88447 3.9402 10.8868 5.11874 11.6321C6.29726 12.3773 7.59114 12.75 9.00038 12.75Z" fill="#1C1B1F"/>
</g>
</mask>
<g mask="url(#mask0_14_525)">
<rect width="18" height="18" fill="#2B2B2B"/>
</g>
</svg>
