<svg width="18" height="18" viewBox="0 0 18 18" fill="none" xmlns="http://www.w3.org/2000/svg">
<mask id="mask0_0_561" style="mask-type:alpha" maskUnits="userSpaceOnUse" x="0" y="0" width="18" height="18">
<mask id="mask1_0_561" style="mask-type:alpha" maskUnits="userSpaceOnUse" x="0" y="0" width="18" height="18">
<rect width="18" height="18" fill="#D9D9D9"/>
</mask>
<g mask="url(#mask1_0_561)">
<path d="M13.4998 16.639C12.8361 16.639 12.2721 16.4067 11.8077 15.9422C11.3433 15.4777 11.1111 14.9136 11.1111 14.25C11.1111 14.1597 11.1173 14.0661 11.1298 13.9693C11.1423 13.8725 11.1611 13.7836 11.1861 13.7026L6.11828 10.7531C5.89681 10.9526 5.64759 11.1084 5.3706 11.2207C5.09362 11.3329 4.80344 11.389 4.50008 11.389C3.83647 11.389 3.2724 11.1567 2.80787 10.6921C2.34335 10.2276 2.11108 9.66344 2.11108 8.99975C2.11108 8.33607 2.34335 7.77202 2.80787 7.30762C3.2724 6.84322 3.83647 6.61102 4.50008 6.61102C4.80344 6.61102 5.09362 6.66714 5.3706 6.77936C5.64759 6.89159 5.89681 7.04743 6.11828 7.24689L11.1861 4.29744C11.1611 4.21645 11.1423 4.12756 11.1298 4.03076C11.1173 3.93395 11.1111 3.84037 11.1111 3.75002C11.1111 3.0864 11.3434 2.52234 11.8079 2.05781C12.2725 1.59329 12.8367 1.36102 13.5003 1.36102C14.164 1.36102 14.7281 1.59331 15.1925 2.05789C15.6569 2.52246 15.8891 3.08659 15.8891 3.75028C15.8891 4.41397 15.6568 4.97801 15.1923 5.44241C14.7278 5.90681 14.1637 6.13901 13.5001 6.13901C13.1967 6.13901 12.9065 6.08439 12.6296 5.97515C12.3526 5.86592 12.1033 5.71157 11.8819 5.5121L6.81407 8.45259C6.83907 8.53358 6.85782 8.62247 6.87032 8.71927C6.88282 8.81609 6.88907 8.90967 6.88907 9.00002C6.88907 9.09037 6.88282 9.18395 6.87032 9.28076C6.85782 9.37756 6.83907 9.46645 6.81407 9.54744L11.8819 12.4879C12.1033 12.2885 12.3526 12.1341 12.6296 12.0249C12.9065 11.9156 13.1967 11.861 13.5001 11.861C14.1637 11.861 14.7278 12.0933 15.1923 12.5579C15.6568 13.0225 15.8891 13.5866 15.8891 14.2503C15.8891 14.914 15.6568 15.478 15.1922 15.9424C14.7276 16.4068 14.1635 16.639 13.4998 16.639ZM13.5001 4.50002C13.7126 4.50002 13.8907 4.42814 14.0345 4.28439C14.1782 4.14064 14.2501 3.96252 14.2501 3.75002C14.2501 3.53752 14.1782 3.35939 14.0345 3.21564C13.8907 3.07189 13.7126 3.00002 13.5001 3.00002C13.2876 3.00002 13.1095 3.07189 12.9657 3.21564C12.822 3.35939 12.7501 3.53752 12.7501 3.75002C12.7501 3.96252 12.822 4.14064 12.9657 4.28439C13.1095 4.42814 13.2876 4.50002 13.5001 4.50002ZM4.50008 9.75002C4.71258 9.75002 4.8907 9.67814 5.03445 9.53439C5.1782 9.39064 5.25008 9.21252 5.25008 9.00002C5.25008 8.78752 5.1782 8.60939 5.03445 8.46564C4.8907 8.32189 4.71258 8.25002 4.50008 8.25002C4.28758 8.25002 4.10945 8.32189 3.9657 8.46564C3.82195 8.60939 3.75008 8.78752 3.75008 9.00002C3.75008 9.21252 3.82195 9.39064 3.9657 9.53439C4.10945 9.67814 4.28758 9.75002 4.50008 9.75002ZM13.5001 15C13.7126 15 13.8907 14.9281 14.0345 14.7844C14.1782 14.6406 14.2501 14.4625 14.2501 14.25C14.2501 14.0375 14.1782 13.8594 14.0345 13.7156C13.8907 13.5719 13.7126 13.5 13.5001 13.5C13.2876 13.5 13.1095 13.5719 12.9657 13.7156C12.822 13.8594 12.7501 14.0375 12.7501 14.25C12.7501 14.4625 12.822 14.6406 12.9657 14.7844C13.1095 14.9281 13.2876 15 13.5001 15Z" fill="#1C1B1F"/>
</g>
</mask>
<g mask="url(#mask0_0_561)">
<rect width="18" height="18" fill="white"/>
</g>
</svg>
