<svg width="18" height="18" viewBox="0 0 18 18" fill="none" xmlns="http://www.w3.org/2000/svg">
<mask id="mask0_0_2261" style="mask-type:alpha" maskUnits="userSpaceOnUse" x="0" y="0" width="18" height="18">
<mask id="mask1_0_2261" style="mask-type:alpha" maskUnits="userSpaceOnUse" x="0" y="0" width="18" height="18">
<rect width="18" height="18" fill="#D9D9D9"/>
</mask>
<g mask="url(#mask1_0_2261)">
<path d="M8.79376 16.76L8.64212 14.38L8.44116 14.3755C6.64824 14.3247 5.13377 13.6648 3.89775 12.3959C2.66175 11.1271 2.04375 9.59465 2.04375 7.79873C2.04375 5.96693 2.68252 4.4136 3.96006 3.13873C5.2376 1.86387 6.79258 1.22644 8.625 1.22644C9.5394 1.22644 10.3937 1.39804 11.1878 1.74124C11.982 2.08445 12.6787 2.55565 13.2779 3.15484C13.877 3.75401 14.3482 4.45068 14.6915 5.24485C15.0347 6.03901 15.2063 6.89329 15.2063 7.80769C15.2063 8.79003 15.0404 9.72814 14.7088 10.622C14.3771 11.5159 13.9247 12.3443 13.3516 13.1072C12.7785 13.8701 12.1017 14.5605 11.3211 15.1785C10.5406 15.7964 9.69811 16.3236 8.79376 16.76ZM10.5 13.6952C11.3875 12.9452 12.1094 12.0671 12.6656 11.0608C13.2219 10.0546 13.5 8.97019 13.5 7.80769C13.5 6.44519 13.0281 5.29207 12.0844 4.34832C11.1406 3.40457 9.9875 2.93269 8.625 2.93269C7.26251 2.93269 6.10938 3.40457 5.16563 4.34832C4.22188 5.29207 3.75 6.44519 3.75 7.80769C3.75 9.17019 4.22188 10.3233 5.16563 11.2671C6.10938 12.2108 7.26251 12.6827 8.625 12.6827H10.5V13.6952ZM8.61074 11.9588C8.84117 11.9588 9.03662 11.8785 9.19709 11.7181C9.35755 11.5576 9.43778 11.3622 9.43778 11.1317C9.43778 10.9013 9.35755 10.7059 9.19709 10.5454C9.03662 10.3849 8.84117 10.3047 8.61074 10.3047C8.3803 10.3047 8.18485 10.3849 8.02439 10.5454C7.86392 10.7059 7.78369 10.9013 7.78369 11.1317C7.78369 11.3622 7.86392 11.5576 8.02439 11.7181C8.18485 11.8785 8.3803 11.9588 8.61074 11.9588ZM8.00869 9.53717H9.24132C9.24132 9.15918 9.28106 8.89071 9.36053 8.73175C9.44002 8.57277 9.67079 8.30225 10.0529 7.92019C10.2838 7.68922 10.4751 7.44248 10.6266 7.17998C10.7781 6.91748 10.8538 6.63025 10.8538 6.31828C10.8538 5.66136 10.6367 5.16866 10.2024 4.8402C9.76821 4.51173 9.24538 4.34749 8.63397 4.34749C8.07202 4.34749 7.59544 4.50933 7.20424 4.83302C6.81306 5.15671 6.53922 5.54976 6.38275 6.01217L7.53587 6.46502C7.60136 6.24953 7.71937 6.03642 7.88989 5.82568C8.06041 5.61496 8.30544 5.5096 8.625 5.5096C8.94457 5.5096 9.18424 5.59774 9.34403 5.77403C9.50381 5.95031 9.58369 6.14423 9.58369 6.35578C9.58369 6.55633 9.52045 6.74023 9.39396 6.90748C9.26746 7.07473 9.12419 7.23839 8.96414 7.39845C8.52365 7.77943 8.25429 8.08527 8.15605 8.31598C8.05781 8.54668 8.00869 8.95375 8.00869 9.53717Z" fill="#1C1B1F"/>
</g>
</mask>
<g mask="url(#mask0_0_2261)">
<rect width="18" height="18" fill="#2B2B2B"/>
</g>
</svg>
