<svg width="18" height="18" viewBox="0 0 18 18" fill="none" xmlns="http://www.w3.org/2000/svg">
<mask id="mask0_0_539" style="mask-type:alpha" maskUnits="userSpaceOnUse" x="0" y="0" width="18" height="18">
<path d="M8.95241 5.30157C6.73019 5.30157 4.88892 7.1111 4.88892 9.36507C4.88892 11.619 6.69844 13.4286 8.95241 13.4286C11.2064 13.4286 13.0159 11.5873 13.0159 9.36507C13.0159 7.14284 11.1746 5.30157 8.95241 5.30157ZM8.95241 11.9682C7.52384 11.9682 6.34923 10.7936 6.34923 9.36507C6.34923 7.9365 7.52384 6.76189 8.95241 6.76189C10.381 6.76189 11.5556 7.9365 11.5556 9.36507C11.5556 10.7936 10.381 11.9682 8.95241 11.9682Z" fill="black"/>
<path d="M13.1745 6.12698C13.683 6.12698 14.0952 5.71479 14.0952 5.20634C14.0952 4.69789 13.683 4.28571 13.1745 4.28571C12.6661 4.28571 12.2539 4.69789 12.2539 5.20634C12.2539 5.71479 12.6661 6.12698 13.1745 6.12698Z" fill="black"/>
<path d="M15.5555 2.82539C14.7301 1.96825 13.5555 1.5238 12.2222 1.5238H5.68252C2.92062 1.5238 1.07935 3.36507 1.07935 6.12698V12.6349C1.07935 14 1.52379 15.1746 2.41268 16.0317C3.26982 16.8571 4.41268 17.2698 5.71427 17.2698H12.1905C13.5555 17.2698 14.6984 16.8254 15.5238 16.0317C16.3809 15.2063 16.8254 14.0317 16.8254 12.6667V6.12698C16.8254 4.79364 16.3809 3.65079 15.5555 2.82539ZM15.4285 12.6667C15.4285 13.6508 15.0793 14.4444 14.5079 14.9841C13.9365 15.5238 13.1428 15.8095 12.1905 15.8095H5.71427C4.76189 15.8095 3.96823 15.5238 3.39681 14.9841C2.82538 14.4127 2.53966 13.619 2.53966 12.6349V6.12698C2.53966 5.1746 2.82538 4.38095 3.39681 3.80952C3.93649 3.26984 4.76189 2.98412 5.71427 2.98412H12.2539C13.2063 2.98412 14 3.26984 14.5714 3.84126C15.1111 4.41269 15.4285 5.20634 15.4285 6.12698V12.6667Z" fill="black"/>
</mask>
<g mask="url(#mask0_0_539)">
<rect width="18" height="18" fill="white"/>
</g>
</svg>
