<svg width="18" height="18" viewBox="0 0 18 18" fill="none" xmlns="http://www.w3.org/2000/svg">
<mask id="mask0_0_568" style="mask-type:alpha" maskUnits="userSpaceOnUse" x="0" y="0" width="18" height="18">
<mask id="mask1_0_568" style="mask-type:alpha" maskUnits="userSpaceOnUse" x="0" y="0" width="18" height="18">
<rect width="18" height="18" fill="#D9D9D9"/>
</mask>
<g mask="url(#mask1_0_568)">
<path d="M8.99999 15.9024C7.06765 15.9024 5.43416 15.5969 4.09951 14.9857C2.76486 14.3746 2.09753 13.6293 2.09753 12.75V5.24999C2.09753 4.38314 2.77186 3.64102 4.12051 3.02363C5.46915 2.40623 7.09564 2.09753 8.99999 2.09753C10.9014 2.09753 12.5271 2.40623 13.8772 3.02363C15.2274 3.64102 15.9024 4.38314 15.9024 5.24999V12.75C15.9024 13.6293 15.2344 14.3746 13.8982 14.9857C12.5621 15.5969 10.9293 15.9024 8.99999 15.9024ZM8.99999 6.76426C10.1095 6.76426 11.2238 6.60563 12.3428 6.28837C13.4618 5.97112 14.0946 5.63124 14.241 5.26874C14.0946 4.90624 13.4634 4.56398 12.3477 4.24197C11.2319 3.91996 10.116 3.75895 8.99999 3.75895C7.87145 3.75895 6.76181 3.91758 5.67106 4.23485C4.5803 4.5521 3.94293 4.89673 3.75895 5.26874C3.93994 5.64374 4.57507 5.98674 5.66433 6.29774C6.75359 6.60875 7.86548 6.76426 8.99999 6.76426ZM8.99999 10.4865C9.51603 10.4865 10.0163 10.4608 10.5008 10.4093C10.9853 10.3578 11.4487 10.2844 11.891 10.1892C12.3332 10.0939 12.7527 9.97607 13.1494 9.83558C13.5462 9.6951 13.91 9.53437 14.241 9.35339V7.30068C13.91 7.47568 13.5477 7.63118 13.1539 7.76718C12.7602 7.90319 12.3429 8.01732 11.9022 8.10957C11.4614 8.20182 10.9988 8.2722 10.5143 8.32071C10.0297 8.36921 9.52499 8.39347 8.99999 8.39347C8.48097 8.39347 7.9737 8.36921 7.47818 8.32071C6.98267 8.2722 6.51378 8.20107 6.07152 8.10732C5.62927 8.01357 5.2129 7.8987 4.82242 7.7627C4.43193 7.6267 4.07744 7.47269 3.75895 7.30068V9.35339C4.07444 9.53138 4.42743 9.69137 4.81793 9.83335C5.20842 9.97533 5.62628 10.0939 6.07152 10.1892C6.51677 10.2844 6.98715 10.3578 7.48267 10.4093C7.97818 10.4608 8.48395 10.4865 8.99999 10.4865ZM8.99999 14.241C9.56603 14.241 10.1429 14.198 10.7307 14.112C11.3185 14.026 11.8609 13.9119 12.3579 13.7696C12.8549 13.6274 13.2744 13.4656 13.6164 13.2844C13.9583 13.1031 14.1666 12.9187 14.241 12.7312V11.0283C13.913 11.2062 13.5522 11.3655 13.1584 11.506C12.7647 11.6465 12.3459 11.7636 11.9022 11.8573C11.4584 11.9511 10.9943 12.0229 10.5098 12.0729C10.0253 12.1229 9.522 12.1479 8.99999 12.1479C8.48097 12.1479 7.9737 12.1229 7.47818 12.0729C6.98267 12.0229 6.51304 11.9496 6.06929 11.8528C5.62554 11.7561 5.20842 11.6382 4.81793 11.4993C4.42743 11.3603 4.07444 11.2018 3.75895 11.0238V12.75C3.83043 12.9345 4.03478 13.1143 4.372 13.2893C4.70923 13.4643 5.12635 13.6229 5.62336 13.7651C6.12037 13.9074 6.66589 14.0223 7.25992 14.1098C7.85393 14.1973 8.43395 14.241 8.99999 14.241Z" fill="#2B2B2B"/>
</g>
</mask>
<g mask="url(#mask0_0_568)">
<rect width="18" height="18" fill="white"/>
</g>
</svg>
