<svg width="24" height="24" viewBox="0 0 24 24" fill="none" xmlns="http://www.w3.org/2000/svg">
<mask id="mask0_28_351" style="mask-type:alpha" maskUnits="userSpaceOnUse" x="0" y="0" width="24" height="24">
<mask id="mask1_28_351" style="mask-type:alpha" maskUnits="userSpaceOnUse" x="0" y="0" width="24" height="24">
<rect width="24" height="24" fill="#D9D9D9"/>
</mask>
<g mask="url(#mask1_28_351)">
<path d="M1.79678 21.2033V18.9283H10.8625V7.85493C10.4451 7.69694 10.0841 7.4646 9.77938 7.1579C9.47466 6.8512 9.24332 6.48916 9.08535 6.07178H6.1435L9.07178 12.9104C9.07178 13.7885 8.7169 14.535 8.00715 15.1497C7.2974 15.7644 6.44052 16.0718 5.4365 16.0718C4.43247 16.0718 3.57484 15.7644 2.8636 15.1497C2.15237 14.535 1.79675 13.7885 1.79675 12.9104L4.73103 6.07178H2.79678V3.79675H9.08538C9.30531 3.20545 9.67979 2.72429 10.2088 2.35328C10.7378 1.98226 11.3351 1.79675 12.0007 1.79675C12.6662 1.79675 13.2633 1.98226 13.7919 2.35328C14.3205 2.72429 14.6948 3.20545 14.9147 3.79675H21.2033V6.07178H19.2691L22.2033 12.9104C22.2033 13.7885 21.8485 14.535 21.1387 15.1497C20.429 15.7644 19.5721 16.0718 18.5681 16.0718C17.564 16.0718 16.7064 15.7644 15.9952 15.1497C15.2839 14.535 14.9283 13.7885 14.9283 12.9104L17.8566 6.07178H14.9147C14.7567 6.48916 14.5254 6.8512 14.2207 7.1579C13.916 7.4646 13.5549 7.69694 13.1375 7.85493V18.9283H22.2033V21.2033H1.79678ZM16.7805 12.8446H20.3511L18.5658 8.70383L16.7805 12.8446ZM3.65493 12.8446H7.22558L5.43428 8.70383L3.65493 12.8446ZM12.0017 5.89243C12.272 5.89243 12.498 5.79958 12.6797 5.61388C12.8614 5.42819 12.9522 5.20082 12.9522 4.93175C12.9522 4.66269 12.8612 4.43714 12.6792 4.25513C12.4972 4.07311 12.2716 3.9821 12.0026 3.9821C11.7335 3.9821 11.5071 4.07311 11.3234 4.25513C11.1397 4.43714 11.0479 4.66269 11.0479 4.93175C11.0479 5.20082 11.1393 5.42819 11.3221 5.61388C11.5049 5.79958 11.7315 5.89243 12.0017 5.89243Z" fill="#1C1B1F"/>
</g>
</mask>
<g mask="url(#mask0_28_351)">
<rect width="24" height="24" fill="white"/>
</g>
</svg>
