<svg width="18" height="18" viewBox="0 0 18 18" fill="none" xmlns="http://www.w3.org/2000/svg">
<mask id="mask0_16_690" style="mask-type:alpha" maskUnits="userSpaceOnUse" x="0" y="0" width="18" height="18">
<mask id="mask1_16_690" style="mask-type:alpha" maskUnits="userSpaceOnUse" x="0" y="0" width="18" height="18">
<rect width="18" height="18" fill="#D9D9D9"/>
</mask>
<g mask="url(#mask1_16_690)">
<path d="M8.99897 12.9024C9.24803 12.9024 9.45714 12.8182 9.62629 12.6497C9.79545 12.4812 9.88003 12.2725 9.88003 12.0234C9.88003 11.7744 9.79579 11.5645 9.62732 11.3939C9.45884 11.2232 9.25008 11.1379 9.00103 11.1379C8.75197 11.1379 8.54286 11.2232 8.37371 11.3939C8.20455 11.5645 8.11997 11.7744 8.11997 12.0234C8.11997 12.2725 8.20421 12.4812 8.37268 12.6497C8.54115 12.8182 8.74992 12.9024 8.99897 12.9024ZM8.14687 9.75895H9.85312V5.15583H8.14687V9.75895ZM9 16.6524C7.93859 16.6524 6.94268 16.4517 6.01228 16.0502C5.08188 15.6488 4.27256 15.1039 3.58432 14.4157C2.89609 13.7274 2.35123 12.9181 1.94975 11.9877C1.54828 11.0573 1.34754 10.0614 1.34754 8.99999C1.34754 7.93858 1.54828 6.94267 1.94975 6.01227C2.35123 5.08187 2.89609 4.27255 3.58432 3.58432C4.27256 2.89608 5.08188 2.35122 6.01228 1.94975C6.94268 1.54827 7.93859 1.34753 9 1.34753C10.0614 1.34753 11.0573 1.54827 11.9877 1.94975C12.9181 2.35122 13.7274 2.89608 14.4157 3.58432C15.1039 4.27255 15.6488 5.08187 16.0502 6.01227C16.4517 6.94267 16.6525 7.93858 16.6525 8.99999C16.6525 10.0614 16.4517 11.0573 16.0502 11.9877C15.6488 12.9181 15.1039 13.7274 14.4157 14.4157C13.7274 15.1039 12.9181 15.6488 11.9877 16.0502C11.0573 16.4517 10.0614 16.6524 9 16.6524ZM9 14.9462C10.663 14.9462 12.0698 14.3709 13.2204 13.2204C14.3709 12.0698 14.9462 10.663 14.9462 8.99999C14.9462 7.33695 14.3709 5.93016 13.2204 4.77961C12.0698 3.62907 10.663 3.0538 9 3.0538C7.33696 3.0538 5.93017 3.62907 4.77962 4.77961C3.62908 5.93016 3.05381 7.33695 3.05381 8.99999C3.05381 10.663 3.62908 12.0698 4.77962 13.2204C5.93017 14.3709 7.33696 14.9462 9 14.9462Z" fill="#1C1B1F"/>
</g>
</mask>
<g mask="url(#mask0_16_690)">
<rect width="18" height="18" fill="#F67280"/>
</g>
</svg>
