<svg width="18" height="18" viewBox="0 0 18 18" fill="none" xmlns="http://www.w3.org/2000/svg">
<mask id="mask0_0_554" style="mask-type:alpha" maskUnits="userSpaceOnUse" x="0" y="0" width="18" height="18">
<mask id="mask1_0_554" style="mask-type:alpha" maskUnits="userSpaceOnUse" x="0" y="0" width="18" height="18">
<rect width="18" height="18" fill="#D9D9D9"/>
</mask>
<g mask="url(#mask1_0_554)">
<path d="M8.99999 11.5871C8.88803 11.5871 8.78083 11.5677 8.67839 11.529C8.57594 11.4903 8.48273 11.4289 8.39877 11.345L5.63152 8.5777C5.46358 8.40977 5.38198 8.21085 5.38673 7.98096C5.3915 7.75106 5.47309 7.55215 5.63152 7.38423C5.80244 7.2133 6.00448 7.12546 6.23763 7.1207C6.47078 7.11595 6.67282 7.19903 6.84374 7.36996L8.14686 8.67308V3.70068C8.14686 3.46127 8.2292 3.25922 8.39388 3.09455C8.55855 2.92987 8.76059 2.84753 8.99999 2.84753C9.23939 2.84753 9.44143 2.92987 9.6061 3.09455C9.77078 3.25922 9.85312 3.46127 9.85312 3.70068V8.67308L11.1562 7.36996C11.3242 7.19903 11.5247 7.1152 11.7579 7.11846C11.991 7.12173 12.1931 7.20882 12.364 7.37975C12.5254 7.55066 12.6085 7.75031 12.6132 7.97871C12.618 8.20711 12.5349 8.40678 12.364 8.5777L9.60121 11.345C9.51725 11.4289 9.42404 11.4903 9.32159 11.529C9.21915 11.5677 9.11195 11.5871 8.99999 11.5871ZM4.5538 15.1524C4.08152 15.1524 3.67907 14.9861 3.34645 14.6535C3.01384 14.3209 2.84753 13.9185 2.84753 13.4462V12.0493C2.84753 11.8099 2.92987 11.6079 3.09455 11.4432C3.25922 11.2785 3.46127 11.1962 3.70068 11.1962C3.94008 11.1962 4.14212 11.2785 4.30679 11.4432C4.47147 11.6079 4.5538 11.8099 4.5538 12.0493V13.4462H13.4462V12.0493C13.4462 11.8099 13.5285 11.6079 13.6932 11.4432C13.8579 11.2785 14.0599 11.1962 14.2993 11.1962C14.5387 11.1962 14.7408 11.2785 14.9054 11.4432C15.0701 11.6079 15.1524 11.8099 15.1524 12.0493V13.4462C15.1524 13.9185 14.9861 14.3209 14.6535 14.6535C14.3209 14.9861 13.9185 15.1524 13.4462 15.1524H4.5538Z" fill="#2B2B2B"/>
</g>
</mask>
<g mask="url(#mask0_0_554)">
<rect width="18" height="18" fill="white"/>
</g>
</svg>
