<svg width="812" height="405" viewBox="0 0 812 405" fill="none" xmlns="http://www.w3.org/2000/svg">
<path d="M0.00150187 1.6152L0.00150193 0.887495L1.83988 -9.71615e-06L3.34699 -9.5844e-06C2.22964 0.539594 1.11395 1.0774 0.00150187 1.6152ZM0.00150167 3.86412L0.00150174 3.13993C2.22152 2.09803 4.44966 1.05252 6.68104 0.00173235L8.22053 0.00173249C5.47112 1.29748 2.73307 2.58612 0.00150167 3.86589L0.00150167 3.86412ZM0.00150148 6.11304L0.00150154 5.39239C3.92026 3.61207 7.85839 1.81576 11.8177 0.0017328L14.9716 0.00173308C62.5173 4.81375 111.746 4.43034 161.841 0.00174592L168.97 0.00174654C115.536 5.11903 63.0305 5.74919 12.4527 0.43308C8.28066 2.34653 4.12975 4.24043 0.00150148 6.11304ZM0.00150128 8.36196L0.00150134 7.64305C3.87473 5.94795 7.76587 4.23509 11.678 2.5027L11.7512 2.47077L11.8291 2.48321C110.545 18.8894 211.581 15.3732 310.482 0.00175891L314.825 0.00175929C214.543 15.9411 111.992 19.7964 11.821 3.15945C7.85839 4.91314 3.91867 6.64552 -2.64789e-05 8.36196L0.00150128 8.36196ZM0.00150108 10.6126L0.00150114 9.89729C3.66849 8.35661 7.35496 6.79998 11.0625 5.22556L11.1405 5.19183L11.2234 5.20955C164.923 38.6504 315.53 29.0335 453.399 0.0017714L456.692 0.00177169C317.927 29.5642 166.133 39.5823 11.1941 5.88586C7.44266 7.4798 3.71242 9.05596 -2.66757e-05 10.6126L0.00150108 10.6126ZM0.00150089 12.8616L0.00150095 12.1516C3.46224 10.7688 6.94253 9.36835 10.4454 7.94836L10.5299 7.91466L10.6159 7.93776C225.883 64.2192 422.681 44.4227 587.541 0.00355533L590.13 0.00355556C424.725 44.8984 226.978 65.1759 10.5656 8.6122C7.02204 10.0482 3.50123 11.4629 0.00150088 12.8633L0.00150089 12.8616ZM0.00150069 15.1158L0.00150075 14.4093C3.25929 13.1775 6.53486 11.9332 9.83152 10.6695L9.91597 10.6357L10.0037 10.6623C293.929 95.6578 529.93 60.4171 707.163 0.00179359L709.242 0.00179377C531.74 60.8342 294.978 96.6429 9.93718 11.3351C6.60636 12.6113 3.29498 13.8715 0.00150069 15.1158ZM0.00150049 17.3718L0.00150055 16.6707C3.05628 15.5915 6.12726 14.4981 9.21614 13.3905L9.30377 13.3585L9.39146 13.387C369.246 133.018 633.388 75.8666 807.458 0.00180236L809.103 0.0018025C634.981 76.211 370.279 134.037 9.31025 14.0597C6.18892 15.1797 3.08714 16.2837 0.00150049 17.3736L0.00150049 17.3718ZM0.00150029 19.6331L0.00150035 18.9356C2.85327 18.0073 5.71959 17.0665 8.60222 16.1115L8.68992 16.0814L8.77761 16.1133C389.452 153.751 647.556 109.16 812 37.0494L812 37.7718C647.465 109.865 389.313 154.383 8.68344 16.7843C5.77318 17.7463 2.87925 18.696 0.00150029 19.6331ZM0.0014997 26.4314L0.00149976 25.7498C2.24749 25.2652 4.50325 24.7753 6.77038 24.2765L6.85319 24.257L6.93434 24.2925C432.412 207.754 672.697 207.738 812 153.885L812 154.593C672.543 208.411 432.154 208.345 6.80124 24.951C4.52439 25.4515 2.25726 25.945 0.0014997 26.4314ZM0.0014995 28.7087L0.00149956 28.0306C2.04613 27.6916 4.10047 27.3472 6.16295 26.9958L6.24257 26.9816L6.31884 27.0171C443.424 223.677 679.574 238.633 812 192.4L812 193.101C679.396 239.288 443.121 224.251 6.17113 27.6721C4.10542 28.0235 2.04937 28.3679 0.0014995 28.7069L0.0014995 28.7087ZM0.0014993 30.9913L0.00149936 30.3204C1.84636 30.1251 3.69776 29.9245 5.55722 29.7187L5.63361 29.7098L5.70175 29.7417C452.569 238.39 685.517 268.187 812 230.371L812 231.072C685.323 268.833 452.231 238.951 5.53938 30.3914C3.68639 30.5955 1.83988 30.7943 0.0014993 30.9895L0.0014993 30.9913ZM0.0014991 33.2863L0.00149916 32.6172C1.64824 32.5604 3.29987 32.5018 4.95797 32.4397L5.02617 32.4397L5.08624 32.4663C459.663 251.763 690.418 296.241 812 267.667L812 268.318C690.203 296.849 459.287 252.306 4.90762 33.1124C3.26736 33.1745 1.63204 33.2313 0.0014991 33.2863ZM0.0014989 35.5956L0.00149896 34.9247C1.45177 35.0045 2.90357 35.0844 4.36031 35.1625L4.41715 35.1661L4.46591 35.1909C464.69 263.744 694.221 322.574 812 303.965L812 304.596C693.987 323.16 464.275 264.266 4.27586 35.8282C2.84838 35.7518 1.4225 35.6737 0.0014989 35.5956ZM0.00149869 37.9297L0.00149875 37.2517C1.25524 37.4647 2.51222 37.6777 3.77084 37.8907L3.81142 37.8978L3.84876 37.9173C467.737 274.339 696.902 347.005 812 338.956L812 339.55C696.659 347.568 467.312 274.857 3.64092 38.5474C2.42617 38.3415 1.21142 38.1374 0.00149869 37.9297ZM0.00149849 40.2958L0.00149855 39.5982L3.18785 40.6224L3.20893 40.6295L3.23167 40.6402C468.953 283.601 698.484 369.418 812 372.347L812 372.924C698.223 369.965 468.502 284.103 3.00434 41.2614L0.00149849 40.2958ZM0.00149827 42.7187L0.00149834 41.9785C0.872014 42.4382 1.74247 42.9015 2.61292 43.3648C468.456 291.574 699.007 389.788 812 403.942L812 404.499C698.742 390.326 468.002 292.073 2.35791 43.9718C1.57191 43.5529 0.78591 43.1358 0.00149827 42.7187ZM0.00149996 23.4725C2.44891 22.8423 4.90768 22.2016 7.37935 21.5537L7.4671 21.5306L7.55155 21.5643C419.592 190.693 664.997 175.77 812 115.112L812 115.824C664.864 176.455 419.374 191.303 7.42805 22.23C4.94013 22.8832 2.46516 23.5275 0.0014999 24.1611L0.00149996 23.4742L0.00149996 23.4725ZM812 76.8447C656.473 143.551 405.043 173.276 8.05816 19.5071C5.3591 20.3147 2.673 21.1117 0.0015001 21.8962L0.00150016 21.2022C2.65026 20.423 5.31363 19.6349 7.98996 18.8326L8.07606 18.806L8.1637 18.8397C405.218 172.657 656.585 142.858 812 76.1294L812 76.8447Z" fill="#FBBBF1"/>
</svg>
