<svg width="24" height="24" viewBox="0 0 24 24" fill="none" xmlns="http://www.w3.org/2000/svg">
<mask id="mask0_0_917" style="mask-type:alpha" maskUnits="userSpaceOnUse" x="0" y="0" width="24" height="24">
<mask id="mask1_0_917" style="mask-type:alpha" maskUnits="userSpaceOnUse" x="0" y="0" width="24" height="24">
<rect width="24" height="24" fill="#D9D9D9"/>
</mask>
<g mask="url(#mask1_0_917)">
<path d="M5.07178 21.2034C4.44206 21.2034 3.90546 20.9817 3.46198 20.5382C3.01849 20.0947 2.79675 19.5581 2.79675 18.9284V5.0719C2.79675 4.44218 3.01849 3.90558 3.46198 3.4621C3.90546 3.01862 4.44206 2.79688 5.07178 2.79688H18.9283C19.558 2.79688 20.0946 3.01862 20.5381 3.4621C20.9816 3.90558 21.2033 4.44218 21.2033 5.0719V18.9284C21.2033 19.5581 20.9816 20.0947 20.5381 20.5382C20.0946 20.9817 19.558 21.2034 18.9283 21.2034H5.07178ZM5.07178 8.35505H18.9283V5.0719H5.07178V8.35505ZM5.07178 13.6452H18.9283V10.355H5.07178V13.6452ZM5.07178 18.9284H18.9283V15.6452H5.07178V18.9284ZM6.07178 7.67407V5.73982H8.01198V7.67407H6.07178ZM6.07178 12.9702V11.03H8.01198V12.9702H6.07178ZM6.07178 18.2605V16.3262H8.01198V18.2605H6.07178Z" fill="#1C1B1F"/>
</g>
</mask>
<g mask="url(#mask0_0_917)">
<rect width="24" height="24" fill="white"/>
</g>
</svg>
