<svg width="18" height="18" viewBox="0 0 18 18" fill="none" xmlns="http://www.w3.org/2000/svg">
<mask id="mask0_31_431" style="mask-type:alpha" maskUnits="userSpaceOnUse" x="0" y="0" width="18" height="18">
<mask id="mask1_31_431" style="mask-type:alpha" maskUnits="userSpaceOnUse" x="0" y="0" width="18" height="18">
<rect width="18" height="18" fill="#D9D9D9"/>
</mask>
<g mask="url(#mask1_31_431)">
<path d="M1.34755 15.9024V14.1962H8.14687V5.89116C7.83382 5.77268 7.56303 5.59842 7.3345 5.3684C7.10597 5.13837 6.93246 4.86684 6.81398 4.5538H4.6076L6.8038 9.68273C6.8038 10.3414 6.53765 10.9012 6.00533 11.3622C5.47302 11.8233 4.83036 12.0538 4.07735 12.0538C3.32432 12.0538 2.6811 11.8233 2.14767 11.3622C1.61425 10.9012 1.34753 10.3414 1.34753 9.68273L3.54824 4.5538H2.09755V2.84753H6.814C6.97895 2.40406 7.25981 2.04319 7.65657 1.76493C8.05333 1.48667 8.5013 1.34753 9.00046 1.34753C9.49962 1.34753 9.94743 1.48667 10.3439 1.76493C10.7404 2.04319 11.0211 2.40406 11.186 2.84753H15.9025V4.5538H14.4518L16.6525 9.68273C16.6525 10.3414 16.3863 10.9012 15.854 11.3622C15.3217 11.8233 14.679 12.0538 13.926 12.0538C13.173 12.0538 12.5298 11.8233 11.9963 11.3622C11.4629 10.9012 11.1962 10.3414 11.1962 9.68273L13.3924 4.5538H11.186C11.0675 4.86684 10.894 5.13837 10.6655 5.3684C10.437 5.59842 10.1662 5.77268 9.85312 5.89116V14.1962H16.6524V15.9024H1.34755ZM12.5853 9.6334H15.2633L13.9243 6.52784L12.5853 9.6334ZM2.74117 9.6334H5.41915L4.07568 6.52784L2.74117 9.6334ZM9.00125 4.41929C9.20395 4.41929 9.37343 4.34965 9.50971 4.21038C9.64598 4.07112 9.71412 3.90058 9.71412 3.69878C9.71412 3.49698 9.64587 3.32783 9.50935 3.19131C9.37284 3.0548 9.20368 2.98655 9.00188 2.98655C8.80009 2.98655 8.6303 3.0548 8.49252 3.19131C8.35475 3.32783 8.28586 3.49698 8.28586 3.69878C8.28586 3.90058 8.35442 4.07112 8.49153 4.21038C8.62865 4.34965 8.79856 4.41929 9.00125 4.41929Z" fill="#1C1B1F"/>
</g>
</mask>
<g mask="url(#mask0_31_431)">
<rect width="18" height="18" fill="#F67280"/>
</g>
</svg>
