<svg width="24" height="24" viewBox="0 0 24 24" fill="none" xmlns="http://www.w3.org/2000/svg">
<mask id="mask0_27_300" style="mask-type:alpha" maskUnits="userSpaceOnUse" x="0" y="0" width="24" height="24">
<rect width="24" height="24" fill="#D9D9D9"/>
</mask>
<g mask="url(#mask0_27_300)">
<path d="M1.79675 21.2034V18.9284H10.8625V7.85505C10.4451 7.69707 10.084 7.46472 9.77935 7.15802C9.47463 6.85133 9.24329 6.48928 9.08532 6.0719H6.14347L9.07175 12.9105C9.07175 13.7886 8.71687 14.5351 8.00712 15.1498C7.29737 15.7645 6.44049 16.0719 5.43647 16.0719C4.43244 16.0719 3.57481 15.7645 2.86357 15.1498C2.15234 14.5351 1.79672 13.7886 1.79672 12.9105L4.731 6.0719H2.79675V3.79688H9.08535C9.30528 3.20557 9.67976 2.72442 10.2088 2.3534C10.7378 1.98238 11.3351 1.79688 12.0006 1.79688C12.6662 1.79688 13.2633 1.98238 13.7919 2.3534C14.3205 2.72442 14.6948 3.20557 14.9147 3.79688H21.2033V6.0719H19.269L22.2033 12.9105C22.2033 13.7886 21.8484 14.5351 21.1387 15.1498C20.4289 15.7645 19.572 16.0719 18.568 16.0719C17.564 16.0719 16.7064 15.7645 15.9951 15.1498C15.2839 14.5351 14.9283 13.7886 14.9283 12.9105L17.8565 6.0719H14.9147C14.7567 6.48928 14.5254 6.85133 14.2206 7.15802C13.9159 7.46472 13.5549 7.69707 13.1375 7.85505V18.9284H22.2033V21.2034H1.79675ZM16.7804 12.8447H20.3511L18.5657 8.70395L16.7804 12.8447ZM3.6549 12.8447H7.22555L5.43425 8.70395L3.6549 12.8447ZM12.0017 5.89255C12.2719 5.89255 12.4979 5.7997 12.6796 5.614C12.8613 5.42832 12.9522 5.20094 12.9522 4.93187C12.9522 4.66281 12.8612 4.43727 12.6791 4.25525C12.4971 4.07323 12.2716 3.98223 12.0025 3.98223C11.7335 3.98223 11.5071 4.07323 11.3234 4.25525C11.1397 4.43727 11.0478 4.66281 11.0478 4.93187C11.0478 5.20094 11.1392 5.42832 11.322 5.614C11.5049 5.7997 11.7314 5.89255 12.0017 5.89255Z" fill="white"/>
</g>
</svg>
