<svg width="18" height="18" viewBox="0 0 18 18" fill="none" xmlns="http://www.w3.org/2000/svg">
<mask id="mask0_0_619" style="mask-type:alpha" maskUnits="userSpaceOnUse" x="0" y="0" width="18" height="18">
<mask id="mask1_0_619" style="mask-type:alpha" maskUnits="userSpaceOnUse" x="0" y="0" width="18" height="18">
<rect width="18" height="18" fill="#D9D9D9"/>
</mask>
<g mask="url(#mask1_0_619)">
<path d="M9.02858 15.1076C7.33564 15.1076 5.89046 14.5189 4.69304 13.3415C3.49562 12.164 2.89692 10.7333 2.89692 9.04932V8.91359L1.76417 10.0463L0.669342 8.94702L3.75004 5.86182L6.83074 8.94702L5.73591 10.0463L4.60317 8.91359V9.03588C4.60317 10.247 5.03333 11.2774 5.89365 12.127C6.75398 12.9766 7.79895 13.4014 9.02858 13.4014C9.36254 13.4014 9.68951 13.3616 10.0095 13.2821C10.3295 13.2027 10.6424 13.0834 10.9484 12.9245L12.2124 14.184C11.7165 14.4889 11.2021 14.719 10.6692 14.8745C10.1363 15.0299 9.58944 15.1076 9.02858 15.1076ZM14.2545 12.1427L11.1693 9.06196L12.2687 7.96265L13.4014 9.09539V8.9731C13.4014 7.76197 12.9705 6.7316 12.1087 5.88202C11.2468 5.03242 10.2011 4.60762 8.9715 4.60762C8.63754 4.60762 8.31057 4.64736 7.9906 4.72685C7.67062 4.80634 7.35765 4.92556 7.05167 5.08452L5.79216 3.82053C6.28809 3.51564 6.80174 3.28622 7.33313 3.13227C7.86452 2.97834 8.41064 2.90137 8.9715 2.90137C10.6644 2.90137 12.1104 3.49009 13.3093 4.66754C14.5082 5.84498 15.1076 7.27568 15.1076 8.95966V9.09539L16.2359 7.96265L17.3352 9.06196L14.2545 12.1427Z" fill="#1C1B1F"/>
</g>
</mask>
<g mask="url(#mask0_0_619)">
<rect width="18" height="18" fill="#6C567B"/>
</g>
</svg>
