<svg width="18" height="18" viewBox="0 0 18 18" fill="none" xmlns="http://www.w3.org/2000/svg">
<mask id="mask0_0_575" style="mask-type:alpha" maskUnits="userSpaceOnUse" x="0" y="0" width="18" height="18">
<mask id="mask1_0_575" style="mask-type:alpha" maskUnits="userSpaceOnUse" x="0" y="0" width="18" height="18">
<rect width="18" height="18" fill="#D9D9D9"/>
</mask>
<g mask="url(#mask1_0_575)">
<path d="M7.87832 11.9776C7.87832 10.9053 7.97716 10.1294 8.17485 9.64973C8.37253 9.1701 8.76962 8.67676 9.36609 8.16969C9.86663 7.7496 10.2438 7.3784 10.4976 7.05611C10.7514 6.73383 10.8783 6.36318 10.8783 5.94416C10.8783 5.45856 10.7147 5.05523 10.3873 4.73417C10.06 4.41311 9.61105 4.25258 9.0404 4.25258C8.4298 4.25258 7.95589 4.4396 7.61867 4.81365C7.28144 5.1877 7.04258 5.59266 6.9021 6.02854L4.75562 5.11386C5.03904 4.25108 5.5472 3.51623 6.28008 2.90931C7.01296 2.30237 7.93307 1.9989 9.0404 1.9989C10.3888 1.9989 11.4258 2.37798 12.1515 3.13615C12.8772 3.8943 13.24 4.8068 13.24 5.87365C13.24 6.54647 13.1056 7.11746 12.8369 7.58663C12.5681 8.05578 12.1433 8.56563 11.5623 9.11618C10.9617 9.67676 10.5944 10.1109 10.4601 10.4187C10.3259 10.7264 10.2588 11.2461 10.2588 11.9776H7.87832ZM9.0404 16.6704C8.58904 16.6704 8.20378 16.5108 7.88463 16.1917C7.56547 15.8725 7.40589 15.4872 7.40589 15.0359C7.40589 14.5845 7.56547 14.1985 7.88463 13.8779C8.20378 13.5572 8.58904 13.3969 9.0404 13.3969C9.49177 13.3969 9.87777 13.5572 10.1984 13.8779C10.5191 14.1985 10.6794 14.5845 10.6794 15.0359C10.6794 15.4872 10.5191 15.8725 10.1984 16.1916C9.87777 16.5108 9.49177 16.6704 9.0404 16.6704Z" fill="#1C1B1F"/>
</g>
</mask>
<g mask="url(#mask0_0_575)">
<rect width="18" height="18" fill="white"/>
</g>
</svg>
