<svg width="18" height="18" viewBox="0 0 18 18" fill="none" xmlns="http://www.w3.org/2000/svg">
<mask id="mask0_0_3005" style="mask-type:alpha" maskUnits="userSpaceOnUse" x="0" y="0" width="18" height="18">
<mask id="mask1_0_3005" style="mask-type:alpha" maskUnits="userSpaceOnUse" x="0" y="0" width="18" height="18">
<rect width="18" height="18" fill="#D9D9D9"/>
</mask>
<g mask="url(#mask1_0_3005)">
<path d="M14.6911 15.9205L9.93467 11.1641C9.56265 11.4521 9.13364 11.6807 8.64763 11.8497C8.16163 12.0187 7.64214 12.1032 7.08915 12.1032C5.69975 12.1032 4.52271 11.6209 3.55804 10.6562C2.59336 9.69154 2.11102 8.5145 2.11102 7.1251C2.11102 5.7357 2.59336 4.55866 3.55804 3.59399C4.52271 2.62931 5.69975 2.14697 7.08915 2.14697C8.47855 2.14697 9.65559 2.62931 10.6203 3.59399C11.5849 4.55866 12.0673 5.7357 12.0673 7.1251C12.0673 7.68107 11.9828 8.20057 11.8137 8.6836C11.6447 9.16661 11.4162 9.59263 11.1281 9.96165L15.889 14.727L14.6911 15.9205ZM7.08915 10.397C7.99975 10.397 8.77271 10.0793 9.40804 9.44399C10.0434 8.80866 10.361 8.0357 10.361 7.1251C10.361 6.2145 10.0434 5.44154 9.40804 4.80621C8.77271 4.17089 7.99975 3.85322 7.08915 3.85322C6.17855 3.85322 5.40559 4.17089 4.77026 4.80621C4.13494 5.44154 3.81727 6.2145 3.81727 7.1251C3.81727 8.0357 4.13494 8.80866 4.77026 9.44399C5.40559 10.0793 6.17855 10.397 7.08915 10.397Z" fill="#1C1B1F"/>
</g>
</mask>
<g mask="url(#mask0_0_3005)">
<rect width="18" height="18" fill="white"/>
</g>
</svg>
