<svg width="185" height="26" viewBox="0 0 185 26" fill="none" xmlns="http://www.w3.org/2000/svg">
<path fill-rule="evenodd" clip-rule="evenodd" d="M92.3684 0C99.5433 0 105.368 5.82512 105.368 13C105.368 20.1749 99.5433 26 92.3684 26C85.1935 26 79.3684 20.1749 79.3684 13C79.3684 5.82512 85.1935 0 92.3684 0ZM88.304 20.306V10.1537H84.9289V20.306H88.304ZM100.472 20.306V14.4841C100.472 11.3657 98.8072 9.91499 96.587 9.91499C94.7967 9.91499 93.9947 10.8996 93.5457 11.5911V10.1537H90.1715C90.2162 11.1062 90.1715 20.306 90.1715 20.306H93.5457V14.6362C93.5457 14.3328 93.5675 14.0294 93.657 13.8125C93.9004 13.2064 94.4561 12.5786 95.3883 12.5786C96.6088 12.5786 97.0978 13.5099 97.0978 14.8741V20.306H100.472ZM86.6392 5.2584C85.4845 5.2584 84.73 6.01758 84.73 7.01264C84.73 7.98672 85.4615 8.76682 86.5945 8.76682H86.6163C87.7932 8.76682 88.5257 7.98672 88.5257 7.01264C88.5039 6.01758 87.7932 5.2584 86.6392 5.2584Z" fill="white"/>
<path fill-rule="evenodd" clip-rule="evenodd" d="M52.6842 0C59.8591 0 65.6842 5.82512 65.6842 13C65.6842 20.1749 59.8591 26 52.6842 26C45.5094 26 39.6842 20.1749 39.6842 13C39.6842 5.82512 45.5094 0 52.6842 0ZM52.6842 4.875C50.4776 4.875 50.2009 4.88434 49.3343 4.9239C48.4695 4.96336 47.8789 5.10072 47.362 5.30156C46.8277 5.50921 46.3746 5.78703 45.9229 6.23873C45.4712 6.69043 45.1934 7.14355 44.9857 7.67782C44.7849 8.19462 44.6476 8.78526 44.6081 9.65006C44.5686 10.5167 44.5592 10.7934 44.5592 13C44.5592 15.2066 44.5686 15.4833 44.6081 16.3499C44.6476 17.2147 44.7849 17.8054 44.9857 18.3222C45.1934 18.8564 45.4712 19.3096 45.9229 19.7613C46.3746 20.213 46.8277 20.4908 47.362 20.6985C47.8789 20.8993 48.4695 21.0366 49.3343 21.0761C50.2009 21.1157 50.4776 21.125 52.6842 21.125C54.8908 21.125 55.1675 21.1157 56.0342 21.0761C56.899 21.0366 57.4896 20.8993 58.0064 20.6985C58.5407 20.4908 58.9938 20.213 59.4456 19.7613C59.8973 19.3096 60.1751 18.8564 60.3827 18.3222C60.5835 17.8054 60.7209 17.2147 60.7603 16.3499C60.7999 15.4833 60.8092 15.2066 60.8092 13C60.8092 10.7934 60.7999 10.5167 60.7603 9.65006C60.7209 8.78526 60.5835 8.19462 60.3827 7.67782C60.1751 7.14355 59.8973 6.69043 59.4456 6.23873C58.9938 5.78703 58.5407 5.50921 58.0064 5.30156C57.4896 5.10072 56.899 4.96336 56.0342 4.9239C55.1675 4.88434 54.8908 4.875 52.6842 4.875ZM52.6842 6.33897C54.8537 6.33897 55.1107 6.34725 55.9674 6.38635C56.7596 6.42251 57.1898 6.55484 57.4761 6.66611C57.8554 6.81347 58.1261 6.98958 58.4103 7.27391C58.6947 7.55818 58.8708 7.82889 59.0181 8.20813C59.1294 8.49443 59.2618 8.9246 59.2979 9.71679C59.337 10.5736 59.3453 10.8305 59.3453 13C59.3453 15.1695 59.337 15.4264 59.2979 16.2832C59.2618 17.0754 59.1294 17.5056 59.0181 17.7919C58.8708 18.1712 58.6947 18.4418 58.4103 18.7261C58.1261 19.0105 57.8554 19.1865 57.4761 19.3339C57.1898 19.4452 56.7596 19.5775 55.9674 19.6136C55.1108 19.6528 54.8539 19.661 52.6842 19.661C50.5146 19.661 50.2577 19.6528 49.401 19.6136C48.6088 19.5775 48.1787 19.4452 47.8924 19.3339C47.5131 19.1865 47.2424 19.0105 46.9581 18.7261C46.6738 18.4418 46.4977 18.1712 46.3503 17.7919C46.2391 17.5056 46.1067 17.0754 46.0705 16.2832C46.0314 15.4264 46.0232 15.1695 46.0232 13C46.0232 10.8305 46.0314 10.5736 46.0705 9.71679C46.1067 8.9246 46.2391 8.49443 46.3503 8.20813C46.4977 7.82889 46.6738 7.55818 46.9581 7.27391C47.2424 6.98958 47.5131 6.81347 47.8924 6.66611C48.1787 6.55484 48.6088 6.42251 49.401 6.38635C50.2578 6.34725 50.5148 6.33897 52.6842 6.33897ZM52.6842 8.82771C50.3799 8.82771 48.5119 10.6957 48.5119 13C48.5119 15.3043 50.3799 17.1723 52.6842 17.1723C54.9885 17.1723 56.8565 15.3043 56.8565 13C56.8565 10.6957 54.9885 8.82771 52.6842 8.82771ZM52.6842 15.7083C51.1885 15.7083 49.9759 14.4958 49.9759 13C49.9759 11.5042 51.1885 10.2917 52.6842 10.2917C54.18 10.2917 55.3926 11.5042 55.3926 13C55.3926 14.4958 54.18 15.7083 52.6842 15.7083ZM57.9964 8.66288C57.9964 9.20136 57.5598 9.63782 57.0214 9.63782C56.4829 9.63782 56.0464 9.20136 56.0464 8.66288C56.0464 8.12439 56.4829 7.68787 57.0214 7.68787C57.5598 7.68787 57.9964 8.12439 57.9964 8.66288Z" fill="white"/>
<path d="M26 13.0794C26 5.85586 20.1797 0 13 0C5.82029 0 0 5.85586 0 13.0794C0 19.6078 4.75394 25.0188 10.9688 26V16.8602H7.66797V13.0794H10.9688V10.1979C10.9688 6.91985 12.9096 5.10916 15.879 5.10916C17.3014 5.10916 18.7891 5.36462 18.7891 5.36462V8.58339H17.1498C15.5349 8.58339 15.0312 9.59158 15.0312 10.6259V13.0794H18.6367L18.0604 16.8602H15.0312V26C21.2461 25.0188 26 19.6078 26 13.0794Z" fill="white"/>
<path fill-rule="evenodd" clip-rule="evenodd" d="M184.737 13C184.737 20.1797 178.917 26 171.737 26C164.557 26 158.737 20.1797 158.737 13C158.737 5.8203 164.557 0 171.737 0C178.917 0 184.737 5.8203 184.737 13ZM163.612 13C163.612 8.51093 167.248 4.87499 171.737 4.87499C176.226 4.87499 179.862 8.51093 179.862 13C179.862 17.489 176.226 21.125 171.737 21.125C167.248 21.125 163.612 17.489 163.612 13ZM174.906 9.40468C174.032 9.6078 173.098 9.72968 172.143 9.74999V12.5937H175.393C175.352 11.4359 175.19 10.3594 174.906 9.40468ZM172.143 5.72811V8.93749C173.017 8.91718 173.849 8.7953 174.642 8.61249C174.052 7.04843 173.159 5.97186 172.143 5.72811ZM171.331 8.93749V5.72811C170.315 5.97186 169.421 7.06874 168.832 8.6328C169.624 8.81561 170.457 8.91718 171.331 8.93749ZM171.331 12.5937V9.74999C170.376 9.70936 169.442 9.6078 168.568 9.40468C168.284 10.3594 168.121 11.4359 168.081 12.5937H171.331ZM164.424 12.5937H167.268C167.309 11.3547 167.492 10.1969 167.756 9.20155C167.106 8.99843 166.517 8.75468 165.988 8.4703C165.074 9.6078 164.506 11.0297 164.424 12.5937ZM167.776 16.8187C167.471 15.7828 167.309 14.6453 167.268 13.4062V13.4265H164.445C164.526 14.9703 165.095 16.3922 166.009 17.55C166.537 17.2656 167.126 17.0219 167.776 16.8187ZM171.331 13.4062H168.081C168.121 14.5641 168.284 15.6406 168.568 16.5953C169.442 16.3922 170.376 16.2703 171.331 16.25V13.4062ZM171.331 20.2516V17.0625C170.457 17.0828 169.624 17.2047 168.832 17.3672C169.421 18.9312 170.315 20.0078 171.331 20.2516ZM172.143 17.0625V20.2719C173.159 20.0281 174.052 18.9312 174.642 17.3672C173.849 17.1844 173.017 17.0828 172.143 17.0625ZM172.143 13.4062V16.25C173.098 16.2906 174.032 16.3922 174.906 16.5953C175.19 15.6406 175.352 14.5641 175.393 13.4062H172.143ZM179.049 13.4062H176.206C176.165 14.6453 175.982 15.7828 175.718 16.7984C176.368 17.0016 176.957 17.2453 177.485 17.5297C178.399 16.3922 178.968 14.9703 179.049 13.4062ZM175.698 9.18124C176.002 10.2172 176.165 11.3547 176.206 12.5937L179.029 12.5734C178.948 11.0297 178.379 9.6078 177.465 8.44999C176.937 8.73436 176.348 8.97811 175.698 9.18124ZM175.454 8.42968C175.982 8.26718 176.47 8.06405 176.917 7.84061C176.124 7.06874 175.17 6.45936 174.113 6.09374C174.662 6.70311 175.109 7.4953 175.454 8.42968ZM168.02 8.42968C168.385 7.47499 168.832 6.6828 169.36 6.09374C168.304 6.45936 167.349 7.04843 166.557 7.86093C167.004 8.08436 167.492 8.26718 168.02 8.42968ZM168.02 17.5703C167.492 17.7328 167.004 17.9359 166.557 18.1594C167.349 18.9312 168.304 19.5406 169.36 19.9062C168.812 19.2969 168.365 18.5047 168.02 17.5703ZM175.454 17.5703C175.109 18.5047 174.642 19.3172 174.113 19.9062C175.17 19.5406 176.124 18.9312 176.917 18.1594C176.47 17.9156 175.982 17.7328 175.454 17.5703Z" fill="white"/>
<path fill-rule="evenodd" clip-rule="evenodd" d="M145.053 13C145.053 20.1797 139.232 26 132.053 26C124.873 26 119.053 20.1797 119.053 13C119.053 5.8203 124.873 0 132.053 0C139.232 0 145.053 5.8203 145.053 13ZM124.085 18.3989V9.34734C124.085 8.81726 124.389 8.38722 124.947 8.38722H139.158C139.696 8.38722 140.02 8.80695 140.02 9.34734V18.3989C140.02 18.8867 139.657 19.2904 139.158 19.2904H124.947C124.447 19.2904 124.085 18.8913 124.085 18.3989ZM125.74 9.79285C125.528 9.79285 125.395 9.91764 125.395 10.1358C125.395 10.3201 125.538 10.401 125.671 10.4763C125.687 10.485 125.702 10.4937 125.717 10.5024C126.114 10.7347 127.255 11.4505 128.464 12.2094C130.163 13.2761 131.999 14.4281 132.099 14.4434C132.239 14.4646 132.422 14.3395 132.534 14.2634C132.544 14.2562 132.554 14.2495 132.563 14.2434C133.145 13.8739 133.729 13.4985 134.314 13.1222C135.552 12.3262 136.796 11.5266 138.039 10.7731C138.077 10.7502 138.117 10.7265 138.159 10.702C138.439 10.5369 138.779 10.3369 138.779 10.1358C138.779 9.91764 138.646 9.79285 138.434 9.79285C138.321 9.79285 134.85 12.0168 133.456 12.9093C133.203 13.0714 133.019 13.1895 132.935 13.2425C132.802 13.3317 132.67 13.413 132.539 13.4935C132.411 13.5728 132.283 13.6513 132.156 13.736L131.348 13.2363C131.286 13.1985 131.034 13.0407 130.669 12.8119C129.188 11.8851 125.845 9.79285 125.74 9.79285Z" fill="white"/>
</svg>
