<svg width="18" height="18" viewBox="0 0 18 18" fill="none" xmlns="http://www.w3.org/2000/svg">
<mask id="mask0_0_954" style="mask-type:alpha" maskUnits="userSpaceOnUse" x="0" y="0" width="18" height="18">
<mask id="mask1_0_954" style="mask-type:alpha" maskUnits="userSpaceOnUse" x="0" y="0" width="18" height="18">
<rect width="18" height="18" fill="#D9D9D9"/>
</mask>
<g mask="url(#mask1_0_954)">
<path d="M2.09753 11.3906C2.09753 11.2507 2.1294 11.1201 2.19312 10.9989C2.25685 10.8777 2.34469 10.7799 2.45665 10.7055L3.35298 10.0627C3.68532 9.82027 4.0574 9.71619 4.46922 9.75043C4.88103 9.78466 5.23613 9.94472 5.5345 10.2306L9.1027 13.6953L11.7183 11.5965C11.8738 11.4785 12.0416 11.3853 12.2217 11.3169C12.4019 11.2484 12.5914 11.2141 12.7903 11.2141H15.0493C15.2887 11.2141 15.4908 11.2965 15.6554 11.4612C15.8201 11.6258 15.9024 11.8279 15.9024 12.0673C15.9024 12.3067 15.8201 12.5087 15.6554 12.6734C15.4908 12.8381 15.2887 12.9204 15.0493 12.9204H12.7859L10.1658 15.0192C9.83342 15.2896 9.45196 15.4139 9.02138 15.3921C8.59082 15.3704 8.21861 15.2103 7.90475 14.912L4.34103 11.4518L3.4402 12.0946C3.15733 12.2935 2.86283 12.3145 2.55672 12.1576C2.2506 12.0006 2.09753 11.745 2.09753 11.3906ZM2.09753 6.73738C2.09753 6.59743 2.12702 6.46923 2.186 6.3528C2.24496 6.23636 2.33042 6.13615 2.44238 6.05218L4.70298 4.40585C5.04483 4.16048 5.42241 4.05253 5.83572 4.082C6.24903 4.11149 6.60488 4.27542 6.90325 4.5738L9.15895 6.8295L14.5598 2.92419C14.8427 2.72229 15.1371 2.6998 15.4433 2.85673C15.7494 3.01366 15.9024 3.26931 15.9024 3.62366C15.9024 3.7636 15.8706 3.89179 15.8069 4.00824C15.7431 4.12468 15.6553 4.22488 15.5433 4.30884L10.1658 8.21415C9.8239 8.45653 9.44632 8.56299 9.03301 8.53351C8.6197 8.50403 8.26385 8.3401 7.96548 8.04172L5.70978 5.78602L3.44468 7.43683C3.15882 7.63874 2.86283 7.66123 2.55672 7.50429C2.2506 7.34736 2.09753 7.09173 2.09753 6.73738Z" fill="#2B2B2B"/>
</g>
</mask>
<g mask="url(#mask0_0_954)">
<rect width="18" height="18" fill="#6C567B"/>
</g>
</svg>
