<svg width="24" height="24" viewBox="0 0 24 24" fill="none" xmlns="http://www.w3.org/2000/svg">
<mask id="mask0_0_925" style="mask-type:alpha" maskUnits="userSpaceOnUse" x="0" y="0" width="24" height="24">
<mask id="mask1_0_925" style="mask-type:alpha" maskUnits="userSpaceOnUse" x="0" y="0" width="24" height="24">
<rect width="24" height="24" fill="#D9D9D9"/>
</mask>
<g mask="url(#mask1_0_925)">
<path d="M0.932047 13.2701C0.63603 12.6701 0.40668 12.0638 0.243997 11.4511C0.0813135 10.8384 -2.81334e-05 10.2214 -2.81334e-05 9.6C-2.81334e-05 7.7413 0.635305 6.17663 1.90597 4.90598C3.17659 3.63533 4.74125 3 6.59997 3C7.64855 3 8.64721 3.21983 9.59592 3.6595C10.5446 4.09918 11.346 4.71268 12 5.5C12.654 4.71268 13.4553 4.09918 14.404 3.6595C15.3527 3.21983 16.3514 3 17.4 3C19.2587 3 20.8233 3.63533 22.094 4.90598C23.3646 6.17663 24 7.7413 24 9.6C24 10.2214 23.9182 10.8384 23.7547 11.451C23.5912 12.0637 23.3622 12.668 23.0679 13.2641C22.8407 12.9275 22.5732 12.6362 22.2654 12.3902C21.9577 12.1442 21.6112 11.9601 21.226 11.838C21.3836 11.4547 21.5061 11.0797 21.5937 10.713C21.6812 10.3464 21.725 9.97537 21.725 9.6C21.725 8.3837 21.3082 7.35879 20.4747 6.52527C19.6412 5.69176 18.6163 5.275 17.4 5.275C16.1018 5.275 15.0922 5.62192 14.3712 6.31577C13.6502 7.00961 12.8598 7.85472 12 8.8511C11.1402 7.84203 10.3498 6.99375 9.62877 6.30625C8.90775 5.61875 7.89815 5.275 6.59997 5.275C5.38367 5.275 4.35876 5.69176 3.52525 6.52527C2.69175 7.35879 2.275 8.3837 2.275 9.6C2.275 9.97537 2.31876 10.3464 2.40627 10.713C2.49381 11.0797 2.61635 11.4547 2.7739 11.838C2.39273 11.9601 2.04826 12.1452 1.74047 12.3932C1.43267 12.6412 1.1632 12.9335 0.932047 13.2701ZM-0.0957031 22.4783V20.8076C-0.0957031 20.0454 0.284005 19.4347 1.04342 18.9756C1.80282 18.5165 2.78834 18.287 3.99997 18.287C4.18475 18.287 4.36021 18.2901 4.52632 18.2965C4.69245 18.3028 4.85523 18.3187 5.01465 18.344C4.77335 18.6933 4.59137 19.0692 4.46872 19.4716C4.34607 19.874 4.28475 20.3027 4.28475 20.7576V22.4783H-0.0957031ZM5.90432 22.4783V20.7576C5.90432 19.6457 6.46725 18.7476 7.5931 18.0633C8.71895 17.3791 10.1876 17.037 11.9991 17.037C13.8276 17.037 15.3008 17.3791 16.4187 18.0633C17.5367 18.7476 18.0956 19.6457 18.0956 20.7576V22.4783H5.90432ZM19.7152 22.4783V20.7576C19.7152 20.3029 19.658 19.8744 19.5437 19.4721C19.4294 19.0699 19.2579 18.6938 19.0293 18.344C19.1887 18.3187 19.3486 18.3028 19.5088 18.2965C19.6691 18.2901 19.8328 18.287 20 18.287C21.2287 18.287 22.2185 18.5165 22.9693 18.9756C23.7202 19.4347 24.0956 20.0454 24.0956 20.8076V22.4783H19.7152ZM12.001 19.1924C11.13 19.1924 10.3395 19.3044 9.62932 19.5285C8.91917 19.7526 8.47551 20.0154 8.29835 20.3169H15.7266C15.5328 20.0154 15.0849 19.7526 14.3831 19.5285C13.6813 19.3044 12.8873 19.1924 12.001 19.1924ZM4.0005 17.3109C3.4342 17.3109 2.94924 17.1093 2.54562 16.7061C2.142 16.303 1.9402 15.8183 1.9402 15.2522C1.9402 14.6688 2.14178 14.1795 2.54495 13.7843C2.94811 13.389 3.43277 13.1913 3.99892 13.1913C4.58224 13.1913 5.07154 13.3887 5.46682 13.7834C5.8621 14.178 6.05975 14.6671 6.05975 15.2506C6.05975 15.8169 5.8624 16.3018 5.46772 16.7055C5.07302 17.1091 4.58395 17.3109 4.0005 17.3109ZM20.0005 17.3109C19.4342 17.3109 18.9492 17.1093 18.5456 16.7061C18.142 16.303 17.9402 15.8183 17.9402 15.2522C17.9402 14.6688 18.1418 14.1795 18.5449 13.7843C18.9481 13.389 19.4328 13.1913 19.9989 13.1913C20.5822 13.1913 21.0715 13.3887 21.4668 13.7834C21.8621 14.178 22.0597 14.6671 22.0597 15.2506C22.0597 15.8169 21.8624 16.3018 21.4677 16.7055C21.073 17.1091 20.584 17.3109 20.0005 17.3109ZM12 16.293C11.1401 16.293 10.4092 15.992 9.80722 15.39C9.20529 14.7881 8.90432 14.0572 8.90432 13.1973C8.90432 12.3234 9.20529 11.589 9.80722 10.994C10.4092 10.3991 11.1401 10.1016 12 10.1016C12.8739 10.1016 13.6083 10.3991 14.2032 10.994C14.7982 11.589 15.0956 12.3234 15.0956 13.1973C15.0956 14.0572 14.7982 14.7881 14.2032 15.39C13.6083 15.992 12.8739 16.293 12 16.293ZM12 12.2571C11.7366 12.2571 11.514 12.3472 11.3323 12.5274C11.1506 12.7076 11.0597 12.9309 11.0597 13.1973C11.0597 13.4607 11.1506 13.6833 11.3323 13.865C11.514 14.0466 11.7376 14.1375 12.003 14.1375C12.2684 14.1375 12.4909 14.0466 12.6706 13.865C12.8503 13.6833 12.9402 13.4597 12.9402 13.1943C12.9402 12.9289 12.8501 12.7063 12.6699 12.5266C12.4897 12.3469 12.2664 12.2571 12 12.2571Z" fill="#1C1B1F"/>
</g>
</mask>
<g mask="url(#mask0_0_925)">
<rect width="24" height="24" fill="white"/>
</g>
</svg>
