<svg width="18" height="18" viewBox="0 0 18 18" fill="none" xmlns="http://www.w3.org/2000/svg">
<mask id="mask0_0_2050" style="mask-type:alpha" maskUnits="userSpaceOnUse" x="0" y="0" width="18" height="18">
<mask id="mask1_0_2050" style="mask-type:alpha" maskUnits="userSpaceOnUse" x="0" y="0" width="18" height="18">
<rect width="18" height="18" fill="#D9D9D9"/>
</mask>
<g mask="url(#mask1_0_2050)">
<path d="M0.699035 9.95257C0.477023 9.50257 0.30501 9.04782 0.182998 8.58831C0.0609851 8.12881 -2.11e-05 7.66604 -2.11e-05 7.2C-2.11e-05 5.80597 0.476479 4.63247 1.42948 3.67948C2.38244 2.72649 3.55594 2.25 4.94998 2.25C5.73642 2.25 6.4854 2.41488 7.19694 2.74463C7.90848 3.07439 8.50949 3.53451 8.99998 4.125C9.49047 3.53451 10.0915 3.07439 10.803 2.74463C11.5146 2.41488 12.2635 2.25 13.05 2.25C14.444 2.25 15.6175 2.72649 16.5705 3.67948C17.5235 4.63247 18 5.80597 18 7.2C18 7.66604 17.9387 8.12879 17.816 8.58827C17.6934 9.04776 17.5217 9.50103 17.3009 9.94809C17.1305 9.69566 16.9299 9.47718 16.6991 9.29267C16.4682 9.10816 16.2084 8.97011 15.9195 8.87854C16.0377 8.59104 16.1296 8.30979 16.1953 8.03479C16.2609 7.75979 16.2937 7.48152 16.2937 7.2C16.2937 6.28778 15.9812 5.51909 15.356 4.89396C14.7309 4.26882 13.9622 3.95625 13.05 3.95625C12.0763 3.95625 11.3191 4.21644 10.7784 4.73683C10.2376 5.25721 9.64482 5.89104 8.99998 6.63833C8.35514 5.88153 7.76234 5.24531 7.22158 4.72969C6.68082 4.21406 5.92362 3.95625 4.94998 3.95625C4.03775 3.95625 3.26907 4.26882 2.64393 4.89396C2.01881 5.51909 1.70625 6.28778 1.70625 7.2C1.70625 7.48152 1.73907 7.75979 1.8047 8.03479C1.87035 8.30979 1.96226 8.59104 2.08042 8.87854C1.79455 8.97011 1.53619 9.1089 1.30535 9.2949C1.0745 9.48091 0.872398 9.70014 0.699035 9.95257ZM-0.0717773 16.8587V15.6057C-0.0717773 15.034 0.213004 14.576 0.782566 14.2317C1.35212 13.8874 2.09125 13.7152 2.99998 13.7152C3.13857 13.7152 3.27015 13.7176 3.39474 13.7224C3.51934 13.7271 3.64142 13.739 3.76098 13.758C3.58001 14.02 3.44353 14.3019 3.35154 14.6037C3.25955 14.9055 3.21356 15.227 3.21356 15.5682V16.8587H-0.0717773ZM4.42824 16.8587V15.5682C4.42824 14.7343 4.85043 14.0607 5.69482 13.5475C6.53921 13.0343 7.64072 12.7777 8.99936 12.7777C10.3707 12.7777 11.4756 13.0343 12.314 13.5475C13.1525 14.0607 13.5717 14.7343 13.5717 15.5682V16.8587H4.42824ZM14.7864 16.8587V15.5682C14.7864 15.2272 14.7435 14.9058 14.6578 14.6041C14.5721 14.3024 14.4435 14.0204 14.272 13.758C14.3916 13.739 14.5114 13.7271 14.6316 13.7224C14.7518 13.7176 14.8746 13.7152 15 13.7152C15.9215 13.7152 16.6638 13.8874 17.227 14.2317C17.7901 14.576 18.0717 15.034 18.0717 15.6057V16.8587H14.7864ZM9.00076 14.3943C8.34753 14.3943 7.7546 14.4783 7.22199 14.6464C6.68938 14.8145 6.35663 15.0116 6.22376 15.2376H11.7949C11.6496 15.0116 11.3137 14.8145 10.7873 14.6464C10.261 14.4783 9.66545 14.3943 9.00076 14.3943ZM3.00037 12.9832C2.57565 12.9832 2.21193 12.832 1.90922 12.5296C1.6065 12.2272 1.45515 11.8637 1.45515 11.4391C1.45515 11.0016 1.60634 10.6347 1.90871 10.3382C2.21109 10.0417 2.57458 9.89348 2.99919 9.89348C3.43668 9.89348 3.80365 10.0415 4.10012 10.3375C4.39658 10.6335 4.54481 11.0003 4.54481 11.4379C4.54481 11.8626 4.3968 12.2264 4.10079 12.5291C3.80477 12.8318 3.43796 12.9832 3.00037 12.9832ZM15.0004 12.9832C14.5756 12.9832 14.2119 12.832 13.9092 12.5296C13.6065 12.2272 13.4551 11.8637 13.4551 11.4391C13.4551 11.0016 13.6063 10.6347 13.9087 10.3382C14.2111 10.0417 14.5746 9.89348 14.9992 9.89348C15.4367 9.89348 15.8037 10.0415 16.1001 10.3375C16.3966 10.6335 16.5448 11.0003 16.5448 11.4379C16.5448 11.8626 16.3968 12.2264 16.1008 12.5291C15.8048 12.8318 15.438 12.9832 15.0004 12.9832ZM8.99998 12.2197C8.35505 12.2197 7.80687 11.994 7.35542 11.5425C6.90397 11.0911 6.67824 10.5429 6.67824 9.89796C6.67824 9.24253 6.90397 8.69172 7.35542 8.24552C7.80687 7.79932 8.35505 7.57622 8.99998 7.57622C9.65542 7.57622 10.2062 7.79932 10.6524 8.24552C11.0986 8.69172 11.3217 9.24253 11.3217 9.89796C11.3217 10.5429 11.0986 11.0911 10.6524 11.5425C10.2062 11.994 9.65542 12.2197 8.99998 12.2197ZM8.99998 9.19281C8.80243 9.19281 8.63552 9.26038 8.49924 9.39553C8.36295 9.53069 8.29481 9.69817 8.29481 9.89796C8.29481 10.0955 8.36295 10.2624 8.49924 10.3987C8.63552 10.535 8.80318 10.6031 9.00223 10.6031C9.20127 10.6031 9.36818 10.535 9.50297 10.3987C9.63775 10.2624 9.70515 10.0948 9.70515 9.89573C9.70515 9.69668 9.63757 9.52976 9.5024 9.39497C9.36725 9.26019 9.19978 9.19281 8.99998 9.19281Z" fill="#1C1B1F"/>
</g>
</mask>
<g mask="url(#mask0_0_2050)">
<rect width="18" height="18" fill="#DC7B97"/>
</g>
</svg>
