<svg width="18" height="18" viewBox="0 0 18 18" fill="none" xmlns="http://www.w3.org/2000/svg">
<mask id="mask0_131_2908" style="mask-type:alpha" maskUnits="userSpaceOnUse" x="0" y="0" width="18" height="18">
<mask id="mask1_131_2908" style="mask-type:alpha" maskUnits="userSpaceOnUse" x="0" y="0" width="18" height="18">
<rect width="18" height="18" fill="#D9D9D9"/>
</mask>
<g mask="url(#mask1_131_2908)">
<path d="M9.00449 16.6524C7.9464 16.6524 6.95206 16.4518 6.02146 16.0506C5.09086 15.6494 4.28058 15.1038 3.59063 14.4138C2.90068 13.7239 2.35509 12.9136 1.95387 11.9829C1.55266 11.0522 1.35205 10.0578 1.35205 8.99962C1.35205 7.94144 1.55266 6.94713 1.95387 6.0167C2.35509 5.08626 2.90068 4.27607 3.59063 3.58613C4.28058 2.89618 5.09089 2.3506 6.02157 1.94937C6.95226 1.54815 7.94669 1.34753 9.00486 1.34753C10.063 1.34753 11.0566 1.54815 11.9855 1.94937C12.9145 2.3506 13.7239 2.89618 14.4139 3.58613C15.1038 4.27607 15.6494 5.08638 16.0506 6.01707C16.4519 6.94776 16.6525 7.94219 16.6525 9.00037C16.6525 10.0585 16.4519 11.0528 16.0506 11.9833C15.6494 12.9137 15.1038 13.7239 14.4139 14.4138C13.7239 15.1038 12.9141 15.6494 11.9845 16.0506C11.0548 16.4518 10.0615 16.6524 9.00449 16.6524ZM8.25897 14.9087V13.4507C7.84946 13.4507 7.4993 13.3053 7.2085 13.0144C6.91769 12.7236 6.77228 12.374 6.77228 11.9656V11.2231L3.2083 7.65895C3.1708 7.88097 3.13643 8.10298 3.10518 8.32499C3.07393 8.547 3.0583 8.76967 3.0583 8.993C3.0583 10.4942 3.55069 11.8093 4.53546 12.9384C5.52025 14.0674 6.76142 14.7242 8.25897 14.9087ZM13.3891 13.0141C13.6391 12.7421 13.8619 12.4482 14.0574 12.1325C14.2529 11.8167 14.4163 11.4877 14.5476 11.1454C14.6788 10.8032 14.7781 10.4518 14.8453 10.0913C14.9126 9.73073 14.9462 9.36399 14.9462 8.99103C14.9462 7.77842 14.6101 6.67098 13.9378 5.66873C13.2655 4.66647 12.3651 3.94333 11.2366 3.4993V3.79034C11.2366 4.19914 11.0897 4.5491 10.7959 4.84023C10.5022 5.13134 10.1512 5.2769 9.74311 5.2769H8.25897V6.7621C8.25897 6.9725 8.18709 7.14958 8.04334 7.29333C7.89959 7.43708 7.72252 7.50895 7.51212 7.50895H6.02691V8.99103H10.4892C10.7 8.99103 10.8772 9.0629 11.0209 9.20665C11.1647 9.3504 11.2366 9.52742 11.2366 9.73769V11.9641H11.9731C12.2981 11.9641 12.5906 12.061 12.8506 12.2547C13.1106 12.4485 13.2901 12.7016 13.3891 13.0141Z" fill="#2B2B2B"/>
</g>
</mask>
<g mask="url(#mask0_131_2908)">
<rect width="18" height="18" fill="white"/>
</g>
</svg>
